<svg width="726" height="541" viewBox="0 0 726 541" fill="none" xmlns="http://www.w3.org/2000/svg">
<path d="M725.921 475.508H0.8125V475.87H725.921V475.508Z" fill="#E6E6E6"/>
<path d="M680.096 488.299H652.875V488.661H680.096V488.299Z" fill="#E6E6E6"/>
<path d="M554.448 498.248H541.846V498.611H554.448V498.248Z" fill="#E6E6E6"/>
<path d="M434.891 493.244H406.814V493.607H434.891V493.244Z" fill="#E6E6E6"/>
<path d="M180.813 493.057H118.178V493.419H180.813V493.057Z" fill="#E6E6E6"/>
<path d="M105.272 493.057H96.0918V493.419H105.272V493.057Z" fill="#E6E6E6"/>
<path d="M411.196 484.471H275.34V484.833H411.196V484.471Z" fill="#E6E6E6"/>
<path d="M344.515 410.829H64.4928C62.2991 410.825 60.1966 409.951 58.6468 408.398C57.097 406.846 56.2266 404.741 56.2266 402.548V8.91526C56.2457 6.73417 57.1245 4.64869 58.6723 3.11181C60.22 1.57493 62.3116 0.710768 64.4928 0.707031H344.515C346.711 0.707031 348.818 1.57946 350.371 3.1324C351.924 4.68534 352.796 6.79158 352.796 8.98777V402.548C352.796 404.744 351.924 406.85 350.371 408.403C348.818 409.956 346.711 410.829 344.515 410.829ZM64.4928 0.997076C62.3953 1.00092 60.385 1.83685 58.9032 3.32138C57.4214 4.80591 56.5891 6.81774 56.5891 8.91526V402.548C56.5891 404.645 57.4214 406.657 58.9032 408.142C60.385 409.626 62.3953 410.462 64.4928 410.466H344.515C346.614 410.462 348.626 409.627 350.11 408.143C351.594 406.658 352.43 404.647 352.434 402.548V8.91526C352.43 6.81641 351.594 4.80461 350.11 3.32049C348.626 1.83637 346.614 1.00091 344.515 0.997076H64.4928Z" fill="#E6E6E6"/>
<path d="M658.21 410.829H378.173C375.978 410.825 373.874 409.951 372.322 408.399C370.77 406.847 369.896 404.743 369.893 402.548V8.91526C369.915 6.73285 370.798 4.64738 372.348 3.1109C373.898 1.57442 375.991 0.710727 378.173 0.707031H658.21C660.389 0.714579 662.477 1.58042 664.022 3.1169C665.566 4.65337 666.443 6.73668 666.462 8.91526V402.548C666.462 404.739 665.594 406.841 664.047 408.393C662.5 409.945 660.401 410.821 658.21 410.829ZM378.173 0.997076C376.074 1.00091 374.063 1.83637 372.579 3.32049C371.094 4.80461 370.259 6.81641 370.255 8.91526V402.548C370.259 404.647 371.094 406.658 372.579 408.143C374.063 409.627 376.074 410.462 378.173 410.466H658.21C660.309 410.462 662.321 409.627 663.805 408.143C665.289 406.658 666.125 404.647 666.129 402.548V8.91526C666.125 6.81641 665.289 4.80461 663.805 3.32049C662.321 1.83637 660.309 1.00091 658.21 0.997076H378.173Z" fill="#E6E6E6"/>
<path d="M379.262 27.7969H85.9551V236.817H379.262V27.7969Z" fill="#FAFAFA"/>
<path d="M384.685 27.7969H88.4922V236.817H384.685V27.7969Z" fill="#F5F5F5"/>
<path d="M377.086 228.275V36.3242L96.0918 36.3242V228.275L377.086 228.275Z" fill="#FAFAFA"/>
<path d="M147.256 228.275L191.836 36.3242H250.279L205.7 228.275H147.256Z" fill="white"/>
<path d="M215.154 228.275L259.748 36.3242H286.142L241.548 228.275H215.154Z" fill="white"/>
<path d="M377.086 228.275V36.3242H376.114V228.275H377.086Z" fill="#FAFAFA"/>
<path d="M80.2559 27.4488V110.285H102.169C102.169 110.285 141.484 84.6018 150.49 31.7704C150.708 30.5051 150.646 29.2074 150.309 27.9684C149.972 26.7295 149.367 25.5796 148.538 24.5994C147.709 23.6193 146.674 22.8328 145.508 22.2953C144.342 21.7578 143.073 21.4824 141.789 21.4884H86.2163C84.6355 21.4884 83.1194 22.1163 82.0016 23.2341C80.8838 24.3519 80.2559 25.868 80.2559 27.4488Z" fill="#E0E0E0"/>
<path d="M80.2559 262.384V116.971H102.169C102.169 116.971 146.647 202.606 151.795 262.384H80.2559Z" fill="#E0E0E0"/>
<path d="M101.53 110.285H81.0531C79.8437 110.285 78.8633 111.266 78.8633 112.475V114.781C78.8633 115.99 79.8437 116.971 81.0531 116.971H101.53C102.74 116.971 103.72 115.99 103.72 114.781V112.475C103.72 111.266 102.74 110.285 101.53 110.285Z" fill="#F5F5F5"/>
<path d="M390.92 27.4487V110.285H368.964C368.964 110.285 329.591 84.6018 320.643 31.7704C320.427 30.5054 320.491 29.2086 320.829 27.9708C321.167 26.733 321.772 25.5841 322.601 24.6046C323.43 23.625 324.463 22.8386 325.628 22.3003C326.792 21.762 328.061 21.4849 329.344 21.4883H384.974C386.551 21.496 388.062 22.1268 389.175 23.2434C390.289 24.3599 390.916 25.8716 390.92 27.4487Z" fill="#E0E0E0"/>
<path d="M390.921 262.384V116.971H368.964C368.964 116.971 324.501 202.606 319.338 262.384H390.921Z" fill="#E0E0E0"/>
<path d="M369.603 116.957H390.08C391.289 116.957 392.27 115.977 392.27 114.767V112.461C392.27 111.252 391.289 110.272 390.08 110.272H369.603C368.393 110.272 367.413 111.252 367.413 112.461V114.767C367.413 115.977 368.393 116.957 369.603 116.957Z" fill="#F5F5F5"/>
<path d="M384.294 288.807H336.104V475.508H384.294V288.807Z" fill="#FAFAFA"/>
<path d="M371.43 475.508H384.294V453.943H357.943L371.43 475.508Z" fill="#F4F8FF"/>
<path d="M153.738 288.807H105.547V475.508H153.738V288.807Z" fill="#E0E0E0"/>
<path d="M384.294 288.807H142.514V468.083H384.294V288.807Z" fill="#FAFAFA"/>
<path d="M215.154 257.105C215.154 274.508 231.919 288.807 252.425 288.807H270.93C291.421 288.807 308.186 274.537 308.186 257.105H215.154Z" fill="#EBEBEB"/>
<path d="M204.423 217.268H239.228C239.228 217.268 233.181 233.22 233.181 242.617C233.181 252.015 259.662 288.807 221.826 288.807C183.99 288.807 210.471 252 210.471 242.617C210.471 233.234 204.423 217.268 204.423 217.268Z" fill="#E0E0E0"/>
<path d="M374.315 299.727H152.49V344.93H374.315V299.727Z" fill="#EBEBEB"/>
<path d="M155.377 475.508H142.514V453.943H168.879L155.377 475.508Z" fill="#FAFAFA"/>
<path d="M256.588 322.322C256.588 323.67 256.988 324.988 257.737 326.109C258.486 327.23 259.55 328.103 260.796 328.619C262.041 329.135 263.411 329.27 264.734 329.007C266.056 328.744 267.27 328.095 268.224 327.142C269.177 326.188 269.826 324.974 270.089 323.652C270.352 322.329 270.217 320.959 269.701 319.713C269.185 318.468 268.312 317.404 267.191 316.655C266.07 315.906 264.752 315.506 263.404 315.506C261.596 315.506 259.863 316.224 258.584 317.502C257.306 318.78 256.588 320.514 256.588 322.322Z" fill="#FAFAFA"/>
<path d="M374.315 355.852H152.49V401.055H374.315V355.852Z" fill="#EBEBEB"/>
<path d="M256.588 378.445C256.588 379.793 256.988 381.111 257.737 382.232C258.486 383.353 259.55 384.226 260.796 384.742C262.041 385.258 263.411 385.393 264.734 385.13C266.056 384.867 267.27 384.218 268.224 383.265C269.177 382.311 269.826 381.097 270.089 379.775C270.352 378.453 270.217 377.082 269.701 375.837C269.185 374.591 268.312 373.527 267.191 372.778C266.07 372.029 264.752 371.629 263.404 371.629C261.596 371.629 259.863 372.347 258.584 373.625C257.306 374.904 256.588 376.637 256.588 378.445Z" fill="#FAFAFA"/>
<path d="M374.315 411.959H152.49V457.162H374.315V411.959Z" fill="#EBEBEB"/>
<path d="M263.404 441.386C267.168 441.386 270.22 438.334 270.22 434.57C270.22 430.806 267.168 427.754 263.404 427.754C259.64 427.754 256.588 430.806 256.588 434.57C256.588 438.334 259.64 441.386 263.404 441.386Z" fill="#FAFAFA"/>
<path d="M537.218 25.2734H429.568V101.903H537.218V25.2734Z" fill="#E0E0E0"/>
<path d="M546.008 25.2734H435.689V101.903H546.008V25.2734Z" fill="#F5F5F5"/>
<path d="M538.975 94.869V32.3066L442.724 32.3066V94.869H538.975Z" fill="white"/>
<path d="M522.035 76.6399V50.5215L459.661 50.5215V76.6399H522.035Z" fill="#F5F5F5"/>
<path d="M624.552 63.5879H559.031V132.299H624.552V63.5879Z" fill="#E0E0E0"/>
<path d="M633.368 63.5879H565.164V132.299H633.368V63.5879Z" fill="#F5F5F5"/>
<path d="M626.336 125.267V70.623H572.199V125.267H626.336Z" fill="white"/>
<path d="M589.137 97.9433C589.137 95.5304 590.094 93.2161 591.799 91.5085C593.504 89.801 595.817 88.8398 598.23 88.8359H600.289C602.702 88.8398 605.015 89.801 606.719 91.5085C608.424 93.2161 609.382 95.5304 609.382 97.9433C609.382 100.355 608.424 102.668 606.719 104.373C605.013 106.078 602.7 107.036 600.289 107.036H598.302C597.102 107.046 595.912 106.818 594.8 106.365C593.689 105.912 592.678 105.244 591.826 104.399C590.974 103.553 590.297 102.548 589.836 101.44C589.374 100.332 589.137 99.1435 589.137 97.9433Z" fill="#F5F5F5"/>
<path d="M725.92 155.664H552.909H521.454V195.647H489.999V235.629H458.544V275.612H427.088V315.594H395.633V355.562H364.178V395.545H332.723V435.527H301.268V475.509H332.723H725.92V155.664Z" fill="#FAFAFA"/>
<path d="M477.326 435.525H298.035V447.519H477.326V435.525Z" fill="#EBEBEB"/>
<path d="M508.781 395.543H329.49V407.536H508.781V395.543Z" fill="#EBEBEB"/>
<path d="M540.236 355.561H360.945V367.554H540.236V355.561Z" fill="#EBEBEB"/>
<path d="M571.691 315.578H392.4V327.571H571.691V315.578Z" fill="#EBEBEB"/>
<path d="M603.146 275.609H423.855V287.603H603.146V275.609Z" fill="#EBEBEB"/>
<path d="M634.601 235.627H455.311V247.62H634.601V235.627Z" fill="#EBEBEB"/>
<path d="M666.056 195.645H486.766V207.638H666.056V195.645Z" fill="#EBEBEB"/>
<path d="M697.511 155.664H518.221V167.657H697.511V155.664Z" fill="#EBEBEB"/>
<path d="M694.466 155.664V195.647H663.011V235.629H631.555V275.612H600.1V315.594H568.645V355.562H537.19V395.545H505.735V435.527H474.279V475.509H505.735H725.921V195.647V155.664H694.466Z" fill="white"/>
<path d="M363.366 540.999C518.659 540.999 644.549 533.649 644.549 524.582C644.549 515.516 518.659 508.166 363.366 508.166C208.073 508.166 82.1836 515.516 82.1836 524.582C82.1836 533.649 208.073 540.999 363.366 540.999Z" fill="#F5F5F5"/>
<path d="M530.359 155.879C532.389 162.681 542.859 175.414 543.686 184.681C544.513 193.948 526.66 208.769 526.66 208.769C526.66 208.769 513.318 164.16 521.672 158.954C530.025 153.748 530.359 155.879 530.359 155.879Z" fill="#263238"/>
<path d="M493.697 204.071C490.535 206.71 487.432 208.929 484.198 211.206C480.964 213.483 477.628 215.556 474.235 217.5C470.829 219.515 467.32 221.349 463.721 222.996C461.894 223.823 460.081 224.635 458.196 225.345C457.267 225.722 456.325 226.085 455.368 226.404L452.467 227.419C449.987 228.113 447.393 228.3 444.839 227.97C442.704 227.721 440.591 227.313 438.516 226.752C434.649 225.682 430.864 224.335 427.19 222.72C420.058 219.607 413.178 215.946 406.611 211.771L409.323 206.725C412.746 208.175 416.255 209.625 419.736 210.887C423.216 212.148 426.726 213.483 430.235 214.57C433.657 215.692 437.144 216.602 440.677 217.297C442.299 217.614 443.942 217.812 445.593 217.891C446.824 217.987 448.062 217.859 449.248 217.514C452.557 216.248 455.791 214.796 458.935 213.164C460.545 212.322 462.14 211.467 463.706 210.539C465.273 209.61 466.868 208.711 468.42 207.754C471.538 205.825 474.583 203.781 477.599 201.678C480.616 199.575 483.618 197.327 486.301 195.195L493.697 204.071Z" fill="#E58A7B"/>
<path d="M501.355 188.626C497.759 185.812 482.879 195.021 478.369 198.864L481.661 218.776C481.661 218.776 503.052 209.813 504.328 203.693C505.677 197.298 504.038 190.772 501.355 188.626Z" fill="#026AA2"/>
<path opacity="0.2" d="M501.355 188.626C497.759 185.812 482.879 195.021 478.369 198.864L481.661 218.776C481.661 218.776 503.052 209.813 504.328 203.693C505.677 197.298 504.038 190.772 501.355 188.626Z" fill="black"/>
<path d="M551.402 248.881L506.242 257.684C482.908 194.498 487.984 192.424 487.984 192.424C491.266 190.621 494.656 189.023 498.136 187.639L498.745 187.407C501.645 186.348 502.225 186.188 506.083 185.057C512.725 183.476 518.917 182.157 526.589 181.069L528.039 180.866C529.489 180.692 530.809 180.547 532.143 180.417C533.042 180.315 533.941 180.257 534.797 180.199L537.698 180.039C542.657 179.793 546.21 179.865 546.21 179.865C544.833 219.326 547.066 230.652 551.402 248.881Z" fill="#026AA2"/>
<path opacity="0.2" d="M551.402 248.881L506.242 257.684C482.908 194.498 487.984 192.424 487.984 192.424C491.266 190.621 494.656 189.023 498.136 187.639L498.745 187.407C501.645 186.348 502.225 186.188 506.083 185.057C512.725 183.476 518.917 182.157 526.589 181.069L528.039 180.866C529.489 180.692 530.809 180.547 532.143 180.417C533.042 180.315 533.941 180.257 534.797 180.199L537.698 180.039C542.657 179.793 546.21 179.865 546.21 179.865C544.833 219.326 547.066 230.652 551.402 248.881Z" fill="black"/>
<path d="M516.031 160.419C513.13 165.22 523.644 167.438 529.866 162.522C534.84 158.578 533.665 149.47 529.402 147.353C525.138 145.236 516.031 160.419 516.031 160.419Z" fill="#026AA2"/>
<path opacity="0.4" d="M516.031 160.419C513.13 165.22 523.644 167.438 529.866 162.522C534.84 158.578 533.665 149.47 529.402 147.353C525.138 145.236 516.031 160.419 516.031 160.419Z" fill="black"/>
<path d="M559.987 510.414L548.69 511.256L544.557 485.253L555.854 484.412L559.987 510.414Z" fill="#E58A7B"/>
<path d="M639.893 474.072L630.307 480.105L613.238 459.86L622.824 453.812L639.893 474.072Z" fill="#E58A7B"/>
<path d="M544.557 485.252L546.848 499.697L557.986 497.826L555.868 484.426L544.557 485.252Z" fill="#CF6F64"/>
<path d="M622.839 453.826L613.238 459.859L620.315 468.241L630.119 462.455L622.839 453.826Z" fill="#CF6F64"/>
<path d="M506.938 257.685C506.938 257.685 506.778 347.337 514.102 381.099C521.73 416.223 544.165 496.13 544.165 496.13L560.436 494.027C560.436 494.027 547.718 413.308 542.294 378.401C536.392 340.362 540.017 251.246 540.017 251.246L506.938 257.685Z" fill="#026AA2"/>
<path opacity="0.7" d="M506.938 257.685C506.938 257.685 506.778 347.337 514.102 381.099C521.73 416.223 544.165 496.13 544.165 496.13L560.436 494.027C560.436 494.027 547.718 413.308 542.294 378.401C536.392 340.362 540.017 251.246 540.017 251.246L506.938 257.685Z" fill="black"/>
<path opacity="0.5" d="M539.004 290.982L531.027 283.035C531.332 317.478 533.261 334.489 539.888 353.023C538.844 333.43 538.757 310.256 539.004 290.982Z" fill="black"/>
<path d="M518.162 255.363C518.162 255.363 542.482 329.455 554.548 372.135C567.281 417.164 616.095 466.965 616.095 466.965L630.104 458.872C630.104 458.872 596.749 411.595 584.481 369.582C559.537 284.295 569.79 266.225 551.387 248.881L518.162 255.363Z" fill="#026AA2"/>
<path opacity="0.7" d="M518.162 255.363C518.162 255.363 542.482 329.455 554.548 372.135C567.281 417.164 616.095 466.965 616.095 466.965L630.104 458.872C630.104 458.872 596.749 411.595 584.481 369.582C559.537 284.295 569.79 266.225 551.387 248.881L518.162 255.363Z" fill="black"/>
<path d="M499.048 134.256C505.516 136.417 511.39 152.471 511.636 158.794C511.883 165.116 492.899 173.832 492.899 173.832C492.899 173.832 484.532 153.529 486.866 140.477C487.882 134.807 499.048 134.256 499.048 134.256Z" fill="#263238"/>
<path d="M410.282 207.259L402.61 198.906L400.102 209.377C400.102 209.377 405.554 214.192 409.963 212.538L410.282 207.259Z" fill="#E58A7B"/>
<path d="M394.837 196.514L389.471 200.777L400.101 209.377L402.61 198.907L394.837 196.514Z" fill="#E58A7B"/>
<path d="M627.307 477.944L636.269 468.909C636.424 468.755 636.629 468.661 636.848 468.645C637.066 468.629 637.283 468.692 637.458 468.822L645.623 474.884C645.825 475.043 645.991 475.242 646.11 475.47C646.23 475.697 646.299 475.948 646.314 476.204C646.329 476.461 646.29 476.717 646.198 476.957C646.106 477.197 645.965 477.415 645.783 477.596C642.592 480.685 640.91 482.019 636.965 485.993C634.543 488.444 631.251 492.258 627.901 495.637C624.551 499.016 621.027 495.869 622.101 494.187C626.988 486.544 626.118 483.687 626.451 479.8C626.502 479.098 626.806 478.439 627.307 477.944Z" fill="#263238"/>
<path d="M547.935 509.631H560.668C560.892 509.631 561.109 509.709 561.281 509.852C561.453 509.995 561.57 510.194 561.61 510.414L563.612 520.479C563.656 520.726 563.646 520.98 563.581 521.224C563.517 521.467 563.399 521.693 563.237 521.885C563.075 522.078 562.872 522.232 562.644 522.337C562.415 522.443 562.166 522.496 561.915 522.494C557.463 522.422 555.316 522.161 549.719 522.161C546.282 522.161 539.175 522.509 534.419 522.509C529.662 522.509 529.154 517.81 531.112 517.39C539.814 515.475 543.222 512.85 546.078 510.327C546.596 509.884 547.253 509.638 547.935 509.631Z" fill="#263238"/>
<g style="mix-blend-mode:multiply" opacity="0.27">
<path d="M547.676 202.736L540.715 206.884L548.749 237.092C546.994 227.941 547.777 217.891 547.676 202.736Z" fill="#026AA2"/>
</g>
<path d="M508.113 155.575C513.059 159.708 520.237 165.727 528.692 158.693C535.943 152.631 541.019 136.722 528.01 136.142C521.209 135.838 508.113 155.575 508.113 155.575Z" fill="#263238"/>
<path d="M520.063 158.402C520.063 165.247 521.122 177.589 526.589 181.098C526.589 181.098 526.096 188.146 513.827 190.525C500.355 193.15 506.083 185.086 506.083 185.086C513.102 181.896 511.884 176.472 509.563 171.599L520.063 158.402Z" fill="#E58A7B"/>
<path d="M515.785 163.783L509.578 171.6C510.122 172.73 510.568 173.904 510.912 175.109C513.639 174.152 516.902 170.324 516.626 167.322C516.567 166.1 516.281 164.901 515.785 163.783Z" fill="#CF6F64"/>
<path d="M520.715 142.682C522.166 153.835 523.05 158.519 518.584 165.262C511.869 175.414 497.86 174.761 493.089 164.276C488.738 154.835 487.114 138.172 497.033 131.719C499.215 130.275 501.729 129.413 504.337 129.216C506.946 129.018 509.561 129.491 511.935 130.59C514.308 131.689 516.362 133.377 517.898 135.494C519.435 137.61 520.405 140.085 520.715 142.682Z" fill="#E58A7B"/>
<path d="M501.341 123.148C493.8 128.499 508.926 130.08 508.94 137.839C508.94 141.044 514.205 151.21 521.688 150.63L528.939 137.752C536.567 125.425 518.541 110.923 501.341 123.148Z" fill="#263238"/>
<path d="M501.341 123.148C488.072 122.452 482.285 133.009 483.808 142.494C493.065 140.186 502.64 139.426 512.145 140.246C530.331 142.102 501.341 123.148 501.341 123.148Z" fill="#263238"/>
<path d="M524.341 152.297C524.525 154.462 523.842 156.611 522.442 158.272C520.571 160.462 518.091 159.171 517.221 156.575C516.481 154.226 516.568 150.267 519.092 149.019C519.649 148.762 520.262 148.647 520.875 148.685C521.488 148.723 522.082 148.914 522.603 149.239C523.124 149.564 523.555 150.014 523.859 150.548C524.163 151.082 524.328 151.683 524.341 152.297Z" fill="#E58A7B"/>
<path d="M504.603 149.021C504.777 149.92 504.443 150.732 503.863 150.848C503.283 150.964 502.66 150.326 502.486 149.398C502.312 148.47 502.645 147.672 503.225 147.556C503.805 147.44 504.429 148.121 504.603 149.021Z" fill="#263238"/>
<path d="M494.466 150.991C494.64 151.891 494.307 152.717 493.727 152.833C493.147 152.949 492.523 152.311 492.349 151.383C492.175 150.455 492.508 149.657 493.089 149.556C493.669 149.454 494.292 150.078 494.466 150.991Z" fill="#263238"/>
<path d="M493.365 149.571L491.088 149.383C491.088 149.383 492.524 150.848 493.365 149.571Z" fill="#263238"/>
<path d="M497.454 152.021C497.046 154.218 496.344 156.35 495.365 158.359C495.885 158.601 496.452 158.727 497.026 158.727C497.599 158.727 498.166 158.601 498.686 158.359L497.454 152.021Z" fill="#DF5753"/>
<path d="M502.472 161.259C502.41 161.26 502.349 161.238 502.301 161.199C502.254 161.159 502.222 161.103 502.211 161.041C502.205 161.007 502.206 160.972 502.213 160.938C502.221 160.904 502.235 160.872 502.256 160.843C502.276 160.815 502.302 160.791 502.331 160.773C502.361 160.754 502.394 160.742 502.429 160.737C503.55 160.542 504.609 160.086 505.521 159.406C506.433 158.725 507.172 157.84 507.679 156.821C507.692 156.789 507.711 156.76 507.736 156.735C507.761 156.71 507.79 156.69 507.823 156.677C507.855 156.663 507.89 156.656 507.925 156.656C507.96 156.656 507.994 156.663 508.027 156.676C508.059 156.69 508.088 156.709 508.113 156.734C508.138 156.759 508.158 156.788 508.171 156.82C508.185 156.853 508.192 156.887 508.192 156.922C508.192 156.957 508.185 156.992 508.172 157.024C507.641 158.131 506.851 159.094 505.869 159.831C504.887 160.569 503.742 161.058 502.53 161.259H502.472Z" fill="#263238"/>
<path d="M506.939 145.163C506.807 145.164 506.678 145.118 506.577 145.032C506.089 144.568 505.498 144.227 504.853 144.035C504.207 143.844 503.526 143.808 502.864 143.93C502.718 143.967 502.563 143.944 502.434 143.866C502.305 143.789 502.212 143.663 502.175 143.517C502.139 143.371 502.162 143.216 502.239 143.087C502.317 142.957 502.442 142.864 502.588 142.828C503.425 142.663 504.288 142.7 505.108 142.934C505.927 143.169 506.679 143.594 507.302 144.177C507.401 144.277 507.456 144.412 507.456 144.554C507.456 144.695 507.401 144.83 507.302 144.931C507.261 144.993 507.208 145.046 507.145 145.086C507.083 145.126 507.013 145.152 506.939 145.163Z" fill="#263238"/>
<path d="M488.854 147.178C488.787 147.193 488.718 147.193 488.651 147.178C488.585 147.151 488.524 147.111 488.474 147.061C488.423 147.01 488.383 146.95 488.356 146.884C488.329 146.818 488.316 146.747 488.316 146.675C488.317 146.604 488.332 146.533 488.361 146.468C488.669 145.675 489.163 144.967 489.802 144.404C490.44 143.842 491.204 143.44 492.03 143.234C492.099 143.219 492.171 143.219 492.241 143.233C492.311 143.247 492.377 143.276 492.436 143.317C492.494 143.357 492.543 143.41 492.581 143.47C492.618 143.531 492.643 143.598 492.653 143.669C492.668 143.737 492.669 143.808 492.655 143.877C492.642 143.946 492.615 144.012 492.576 144.07C492.536 144.128 492.486 144.178 492.427 144.216C492.368 144.254 492.302 144.28 492.233 144.292C491.581 144.47 490.98 144.797 490.476 145.248C489.973 145.698 489.581 146.26 489.332 146.888C489.286 146.975 489.217 147.048 489.133 147.099C489.049 147.15 488.952 147.177 488.854 147.178Z" fill="#263238"/>
<path d="M623.942 483.208C623.693 483.201 623.45 483.135 623.233 483.013C623.015 482.892 622.831 482.72 622.695 482.512C622.592 482.389 622.523 482.241 622.495 482.083C622.467 481.926 622.481 481.763 622.535 481.612C623.043 480.249 627.045 479.379 627.495 479.278C627.547 479.268 627.601 479.274 627.65 479.295C627.699 479.316 627.741 479.35 627.77 479.394C627.801 479.436 627.818 479.487 627.818 479.539C627.818 479.591 627.801 479.642 627.77 479.684C626.987 480.974 625.45 483.135 624.014 483.208H623.942ZM626.973 479.945C625.392 480.351 623.304 481.076 623.043 481.801C623.017 481.868 623.012 481.94 623.027 482.01C623.043 482.08 623.078 482.143 623.13 482.193C623.219 482.342 623.347 482.465 623.5 482.549C623.653 482.633 623.825 482.675 624 482.671C624.768 482.628 625.856 481.627 626.973 479.945Z" fill="#026AA2"/>
<path d="M626.32 479.946C624.87 479.946 623.057 479.583 622.52 478.8C622.401 478.622 622.346 478.408 622.365 478.195C622.383 477.981 622.474 477.78 622.622 477.625C622.749 477.464 622.909 477.331 623.092 477.236C623.274 477.141 623.475 477.086 623.681 477.074H623.797C625.421 477.074 627.654 479.264 627.741 479.351C627.776 479.384 627.801 479.425 627.814 479.471C627.827 479.517 627.827 479.566 627.814 479.612C627.801 479.657 627.777 479.698 627.744 479.731C627.711 479.764 627.67 479.788 627.625 479.801C627.198 479.904 626.759 479.952 626.32 479.946ZM623.797 477.611H623.71C623.579 477.615 623.452 477.649 623.336 477.709C623.221 477.769 623.121 477.855 623.042 477.959C622.839 478.234 622.897 478.394 622.97 478.495C623.405 479.163 625.624 479.54 626.987 479.38C626.117 478.494 625.009 477.879 623.797 477.611Z" fill="#026AA2"/>
<path d="M543.774 511.617C542.798 511.703 541.823 511.458 541.004 510.921C540.81 510.77 540.658 510.572 540.562 510.346C540.465 510.121 540.428 509.874 540.453 509.63C540.452 509.484 540.489 509.341 540.56 509.214C540.631 509.087 540.734 508.98 540.859 508.905C542.193 508.122 546.863 510.442 547.385 510.703C547.434 510.729 547.474 510.769 547.5 510.818C547.526 510.868 547.536 510.923 547.53 510.979C547.523 511.033 547.5 511.084 547.464 511.126C547.428 511.167 547.38 511.197 547.327 511.211C546.158 511.455 544.968 511.591 543.774 511.617ZM541.627 509.267C541.457 509.257 541.287 509.292 541.134 509.369C541.085 509.395 541.045 509.435 541.019 509.484C540.993 509.533 540.983 509.589 540.989 509.644C540.975 509.808 541 509.973 541.064 510.124C541.127 510.276 541.226 510.41 541.352 510.515C542.077 511.138 543.948 511.24 546.413 510.834C544.916 510.049 543.299 509.519 541.627 509.267Z" fill="#026AA2"/>
<path d="M547.269 511.182H547.168C545.718 510.558 542.919 508.093 543.122 506.831C543.122 506.541 543.383 506.164 544.108 506.092H544.325C546.849 506.092 547.501 510.703 547.53 510.907C547.537 510.955 547.531 511.004 547.513 511.05C547.496 511.096 547.467 511.136 547.429 511.168C547.378 511.187 547.323 511.192 547.269 511.182ZM544.369 506.599H544.209C543.745 506.599 543.716 506.817 543.716 506.875C543.6 507.644 545.515 509.572 546.965 510.428C546.675 509.297 545.935 506.628 544.311 506.628L544.369 506.599Z" fill="#026AA2"/>
<path d="M503.501 147.6L501.225 147.396C501.225 147.396 502.66 148.876 503.501 147.6Z" fill="#263238"/>
<path d="M513.464 200.169C489.202 205.579 496.7 190.902 498.15 187.668L498.759 187.436C501.659 186.378 502.239 186.218 506.097 185.087C512.828 183.27 519.681 181.937 526.603 181.099L528.053 180.896C529.504 180.707 530.823 180.562 532.157 180.446C533.057 180.345 533.956 180.287 534.811 180.229L537.712 180.055C538.205 182.317 539.409 194.412 513.464 200.169Z" fill="#E58A7B"/>
<path d="M551.546 246.097L554.374 249.752C554.592 250.027 554.287 250.419 553.765 250.52L506.401 259.744C505.995 259.831 505.618 259.744 505.546 259.439L504.342 255.48C504.342 255.205 504.574 254.9 505.009 254.813L550.749 245.909C550.887 245.868 551.033 245.864 551.173 245.897C551.312 245.93 551.441 245.999 551.546 246.097Z" fill="#26395A"/>
<path d="M546.398 252.406L547.631 252.174C547.877 252.174 548.037 251.971 547.993 251.811L546.398 246.678C546.398 246.518 546.108 246.445 545.861 246.489L544.643 246.721C544.397 246.721 544.237 246.939 544.281 247.084L545.876 252.232C545.919 252.377 546.166 252.464 546.398 252.406Z" fill="#026AA2"/>
<path d="M518.656 269.519L509.215 266.01L510.665 274.987C510.665 274.987 517.51 277.452 521.005 274.29L518.656 269.519Z" fill="#E58A7B"/>
<path d="M500.224 268.388L497.977 274.276L510.666 274.987L509.216 266.01L500.224 268.388Z" fill="#E58A7B"/>
<path d="M509.926 259.511L511.159 259.279C511.391 259.279 511.565 259.076 511.507 258.917L509.912 253.783C509.912 253.623 509.636 253.551 509.39 253.594L508.157 253.826C507.91 253.826 507.751 254.044 507.809 254.189L509.404 259.337C509.448 259.482 509.68 259.569 509.926 259.511Z" fill="#026AA2"/>
<path d="M528.17 255.945L529.388 255.713C529.635 255.713 529.794 255.51 529.751 255.35L528.156 250.217C528.156 250.057 527.866 249.985 527.619 250.028L526.401 250.26C526.154 250.26 525.995 250.478 526.038 250.623L527.634 255.771C527.691 255.855 527.775 255.917 527.872 255.949C527.969 255.98 528.074 255.979 528.17 255.945Z" fill="#026AA2"/>
<path d="M523.007 175.342C524.037 174.95 525.327 178.576 525.008 179.04C524.269 180.099 510.724 183.797 510.114 181.723C510.077 180.599 510.249 179.478 510.622 178.416C511.014 177.72 514.016 178.997 523.007 175.342Z" fill="#026AA2"/>
<path d="M520.715 175.429C521.237 174.225 522.731 172.296 524.036 173.398C525.341 174.501 525.892 176.879 525.037 177.271C524.181 177.662 519.816 177.445 520.715 175.429Z" fill="#026AA2"/>
<path d="M523.485 176.051C524.384 175.094 526.385 173.774 527.299 175.254C528.212 176.733 527.879 179.155 526.951 179.227C526.022 179.3 521.962 177.632 523.485 176.051Z" fill="#026AA2"/>
<path d="M523.979 175.835C523.906 175.064 524.057 174.288 524.415 173.601C524.773 172.914 525.321 172.345 525.995 171.963C527.648 170.89 529.258 170.194 529.896 169.062C530.171 170.123 530.225 171.229 530.055 172.311C529.722 173.863 524.573 175.052 524.921 176.401L523.979 175.835Z" fill="#026AA2"/>
<path d="M523.762 175.762C523.282 175.153 522.988 174.419 522.916 173.647C522.844 172.875 522.997 172.098 523.356 171.411C524.139 169.613 525.125 168.163 525.067 166.887C525.873 167.629 526.519 168.527 526.967 169.526C527.518 170.976 523.849 174.79 524.879 175.748L523.762 175.762Z" fill="#026AA2"/>
<path d="M624.623 459.062C624.594 459.061 624.565 459.052 624.54 459.037C624.514 459.022 624.493 459 624.478 458.975C624.145 458.511 590.993 411.204 578.84 369.641C570.909 342.98 564.813 315.807 560.596 288.313C558.087 272.825 556.565 263.471 551.576 255.799C551.542 255.764 551.523 255.717 551.523 255.669C551.523 255.62 551.542 255.573 551.576 255.538C551.61 255.508 551.654 255.492 551.699 255.492C551.744 255.492 551.788 255.508 551.822 255.538C556.869 263.282 558.392 272.665 560.901 288.197C565.138 315.652 571.243 342.785 579.174 369.409C591.312 410.914 624.435 458.162 624.768 458.641C624.795 458.676 624.81 458.72 624.81 458.764C624.81 458.809 624.795 458.852 624.768 458.888C624.766 458.928 624.751 458.967 624.725 458.999C624.699 459.03 624.663 459.052 624.623 459.062Z" fill="#026AA2"/>
<path opacity="0.4" d="M624.623 459.062C624.594 459.061 624.565 459.052 624.54 459.037C624.514 459.022 624.493 459 624.478 458.975C624.145 458.511 590.993 411.204 578.84 369.641C570.909 342.98 564.813 315.807 560.596 288.313C558.087 272.825 556.565 263.471 551.576 255.799C551.542 255.764 551.523 255.717 551.523 255.669C551.523 255.62 551.542 255.573 551.576 255.538C551.61 255.508 551.654 255.492 551.699 255.492C551.744 255.492 551.788 255.508 551.822 255.538C556.869 263.282 558.392 272.665 560.901 288.197C565.138 315.652 571.243 342.785 579.174 369.409C591.312 410.914 624.435 458.162 624.768 458.641C624.795 458.676 624.81 458.72 624.81 458.764C624.81 458.809 624.795 458.852 624.768 458.888C624.766 458.928 624.751 458.967 624.725 458.999C624.699 459.03 624.663 459.052 624.623 459.062Z" fill="black"/>
<path d="M563.352 493.969L541.192 496.841L539.742 490.663L562.815 485.775L563.352 493.969Z" fill="#026AA2"/>
<path d="M631.281 458.381L614.937 467.822L609.426 463.108L627.307 451.014L631.281 458.381Z" fill="#026AA2"/>
<path d="M554.58 195.225C555.363 199.256 555.812 203.056 556.247 206.986C556.682 210.916 556.842 214.803 556.958 218.733C557.073 222.694 556.986 226.658 556.697 230.61C556.537 232.597 556.363 234.583 556.088 236.585C555.972 237.571 555.841 238.572 555.653 239.572L555.116 242.647C554.522 245.153 553.432 247.515 551.911 249.593C550.664 251.342 549.287 252.995 547.793 254.538C544.994 257.413 541.989 260.079 538.801 262.515C532.634 267.263 526.108 271.525 519.281 275.262L516.178 270.447C519.078 268.142 521.979 265.763 524.879 263.341C527.779 260.919 530.535 258.469 533.189 255.916C535.811 253.46 538.286 250.849 540.599 248.1C541.662 246.827 542.631 245.48 543.5 244.068C544.185 243.039 544.676 241.894 544.95 240.689C545.422 237.168 545.698 233.624 545.777 230.073C545.777 228.261 545.777 226.448 545.777 224.635C545.777 222.822 545.704 220.98 545.617 219.153C545.443 215.499 545.11 211.902 544.718 208.19C544.326 204.477 543.819 200.808 543.268 197.371L554.58 195.225Z" fill="#E58A7B"/>
<path d="M552.822 182.897C559.015 187.915 557.536 202.823 557.536 202.823L536.652 209.697C536.652 209.697 537.609 192.512 538.654 186.334C539.872 178.982 546.717 177.952 552.822 182.897Z" fill="#026AA2"/>
<path opacity="0.2" d="M552.822 182.897C559.015 187.915 557.536 202.823 557.536 202.823L536.652 209.697C536.652 209.697 537.609 192.512 538.654 186.334C539.872 178.982 546.717 177.952 552.822 182.897Z" fill="black"/>
<path d="M276.948 245.111C276.138 241.594 274.159 238.457 271.335 236.21C268.512 233.963 265.01 232.74 261.401 232.74H145.384C141.153 232.74 137.096 234.421 134.104 237.413C131.112 240.404 129.432 244.462 129.432 248.693V506.57C129.432 510.801 131.112 514.859 134.104 517.85C137.096 520.842 141.153 522.523 145.384 522.523H513.739C517.97 522.523 522.028 520.842 525.019 517.85C528.011 514.859 529.692 510.801 529.692 506.57V289.951C529.692 285.72 528.011 281.663 525.019 278.671C522.028 275.68 517.97 273.999 513.739 273.999H313.247C304.82 274 296.643 271.144 290.05 265.897C283.457 260.65 278.838 253.322 276.948 245.111Z" fill="#026AA2"/>
<path opacity="0.6" d="M276.948 245.111C276.138 241.594 274.159 238.457 271.335 236.21C268.512 233.963 265.01 232.74 261.401 232.74H145.384C141.153 232.74 137.096 234.421 134.104 237.413C131.112 240.404 129.432 244.462 129.432 248.693V506.57C129.432 510.801 131.112 514.859 134.104 517.85C137.096 520.842 141.153 522.523 145.384 522.523H513.739C517.97 522.523 522.028 520.842 525.019 517.85C528.011 514.859 529.692 510.801 529.692 506.57V289.951C529.692 285.72 528.011 281.663 525.019 278.671C522.028 275.68 517.97 273.999 513.739 273.999H313.247C304.82 274 296.643 271.144 290.05 265.897C283.457 260.65 278.838 253.322 276.948 245.111Z" fill="black"/>
<path opacity="0.22" d="M235.994 164.799L246.334 198.284C247.654 202.546 250.612 206.11 254.557 208.193C258.502 210.275 263.113 210.707 267.377 209.393L300.848 199.053L235.994 164.799Z" fill="#026AA2"/>
<path d="M235.994 164.799L116.351 201.765C114.239 202.414 112.275 203.473 110.573 204.881C108.87 206.289 107.462 208.02 106.429 209.973C105.396 211.926 104.758 214.063 104.552 216.263C104.346 218.463 104.575 220.682 105.227 222.793L173.533 443.922C174.185 446.034 175.246 447.996 176.656 449.697C178.067 451.398 179.799 452.804 181.753 453.836C183.707 454.867 185.845 455.504 188.045 455.709C190.245 455.914 192.464 455.684 194.575 455.031L347.704 407.725C349.815 407.074 351.776 406.014 353.477 404.605C355.178 403.196 356.585 401.466 357.616 399.513C358.648 397.56 359.285 395.423 359.49 393.224C359.695 391.025 359.465 388.807 358.812 386.697L300.804 199.053L235.994 164.799Z" fill="#026AA2"/>
<path opacity="0.8" d="M235.994 164.799L116.351 201.765C114.239 202.414 112.275 203.473 110.573 204.881C108.87 206.289 107.462 208.02 106.429 209.973C105.396 211.926 104.758 214.063 104.552 216.263C104.346 218.463 104.575 220.682 105.227 222.793L173.533 443.922C174.185 446.034 175.246 447.996 176.656 449.697C178.067 451.398 179.799 452.804 181.753 453.836C183.707 454.867 185.845 455.504 188.045 455.709C190.245 455.914 192.464 455.684 194.575 455.031L347.704 407.725C349.815 407.074 351.776 406.014 353.477 404.605C355.178 403.196 356.585 401.466 357.616 399.513C358.648 397.56 359.285 395.423 359.49 393.224C359.695 391.025 359.465 388.807 358.812 386.697L300.804 199.053L235.994 164.799Z" fill="white"/>
<g opacity="0.28">
<path d="M300.369 398.067L200.826 428.811C198.965 429.383 196.952 429.194 195.23 428.287C193.507 427.379 192.213 425.826 191.632 423.967C191.065 422.106 191.258 420.096 192.168 418.376C193.078 416.656 194.632 415.366 196.49 414.788L296.033 384.029C297.897 383.457 299.91 383.648 301.634 384.558C303.357 385.469 304.649 387.025 305.227 388.887C305.794 390.748 305.601 392.758 304.691 394.478C303.781 396.198 302.227 397.488 300.369 398.067Z" fill="#026AA2"/>
</g>
<g opacity="0.28">
<path d="M193.241 217.63L140.598 233.887C138.737 234.455 136.726 234.264 135.004 233.357C133.282 232.45 131.988 230.9 131.404 229.043C130.837 227.18 131.029 225.168 131.939 223.445C132.849 221.723 134.403 220.43 136.262 219.849L188.905 203.592C190.767 203.016 192.781 203.203 194.505 204.111C196.228 205.019 197.521 206.575 198.099 208.436C198.667 210.299 198.474 212.311 197.564 214.034C196.654 215.756 195.1 217.049 193.241 217.63Z" fill="#026AA2"/>
</g>
<g opacity="0.28">
<path d="M236.197 234.873L149.184 261.745C147.326 262.303 145.324 262.106 143.61 261.196C141.897 260.287 140.612 258.738 140.033 256.887C139.462 255.027 139.651 253.017 140.559 251.296C141.467 249.576 143.019 248.285 144.877 247.707L231.89 220.834C233.752 220.263 235.764 220.451 237.487 221.359C239.21 222.267 240.503 223.82 241.084 225.678C241.646 227.546 241.448 229.559 240.533 231.281C239.618 233.003 238.059 234.294 236.197 234.873Z" fill="#026AA2"/>
</g>
<g opacity="0.28">
<path d="M284.779 250.376L157.798 289.532C155.938 290.104 153.928 289.915 152.207 289.007C150.487 288.099 149.196 286.546 148.618 284.688C148.05 282.827 148.241 280.816 149.148 279.094C150.055 277.373 151.605 276.079 153.462 275.494L280.443 236.338C282.302 235.771 284.311 235.962 286.031 236.869C287.75 237.776 289.041 239.327 289.623 241.182C290.194 243.044 290.006 245.056 289.098 246.779C288.191 248.502 286.638 249.795 284.779 250.376Z" fill="#026AA2"/>
</g>
<g opacity="0.28">
<path d="M293.377 278.22L219.561 301.032C217.7 301.598 215.689 301.406 213.969 300.495C212.249 299.585 210.96 298.031 210.381 296.173C209.814 294.314 210.005 292.305 210.912 290.586C211.819 288.866 213.37 287.575 215.225 286.993L289.041 264.182C290.904 263.618 292.915 263.813 294.636 264.722C296.357 265.631 297.651 267.183 298.235 269.04C298.802 270.901 298.609 272.912 297.699 274.631C296.789 276.351 295.235 277.641 293.377 278.22Z" fill="#026AA2"/>
</g>
<g opacity="0.28">
<path d="M185.715 311.488L166.412 317.449C164.551 318.02 162.539 317.832 160.816 316.924C159.093 316.016 157.799 314.463 157.218 312.605C156.647 310.741 156.837 308.727 157.748 307.004C158.659 305.281 160.215 303.989 162.076 303.41L181.379 297.45C183.24 296.882 185.251 297.073 186.973 297.98C188.695 298.887 189.989 300.437 190.573 302.294C191.136 304.157 190.942 306.168 190.033 307.889C189.123 309.61 187.572 310.903 185.715 311.488Z" fill="#026AA2"/>
</g>
<g opacity="0.28">
<path d="M301.993 306.079L175.012 345.308C173.15 345.875 171.14 345.682 169.42 344.772C167.7 343.861 166.41 342.308 165.832 340.45C165.261 338.59 165.45 336.58 166.358 334.859C167.265 333.138 168.818 331.848 170.676 331.27L297.657 292.041C299.516 291.474 301.525 291.665 303.245 292.572C304.964 293.479 306.255 295.03 306.837 296.885C307.408 298.747 307.22 300.759 306.312 302.482C305.405 304.205 303.852 305.498 301.993 306.079Z" fill="#026AA2"/>
</g>
<g opacity="0.28">
<path d="M261.589 349.063L183.61 373.151C181.751 373.719 179.742 373.528 178.023 372.62C176.303 371.713 175.012 370.163 174.43 368.307C173.863 366.446 174.053 364.435 174.96 362.713C175.867 360.992 177.418 359.698 179.274 359.113L257.252 335.025C259.116 334.458 261.128 334.65 262.85 335.56C264.573 336.47 265.865 338.024 266.447 339.883C267.018 341.745 266.827 343.757 265.916 345.478C265.005 347.199 263.449 348.488 261.589 349.063Z" fill="#026AA2"/>
</g>
<g opacity="0.28">
<path d="M310.592 333.937L289.781 340.361C287.918 340.928 285.906 340.736 284.183 339.826C282.461 338.916 281.168 337.362 280.587 335.503C280.02 333.641 280.213 331.631 281.123 329.911C282.033 328.191 283.587 326.901 285.445 326.323L306.256 319.898C308.115 319.327 310.126 319.516 311.846 320.424C313.567 321.332 314.858 322.885 315.436 324.742C316.007 326.604 315.819 328.616 314.911 330.339C314.004 332.062 312.451 333.355 310.592 333.937Z" fill="#026AA2"/>
</g>
<g opacity="0.28">
<path d="M319.192 361.812L192.24 400.968C190.377 401.539 188.363 401.348 186.639 400.438C184.916 399.527 183.624 397.971 183.046 396.109C182.475 394.248 182.666 392.236 183.577 390.515C184.487 388.794 186.044 387.505 187.904 386.929L314.87 347.701C316.734 347.138 318.744 347.332 320.466 348.242C322.187 349.151 323.48 350.702 324.065 352.559C324.356 353.487 324.461 354.463 324.373 355.431C324.286 356.399 324.008 357.34 323.555 358.2C323.102 359.06 322.483 359.822 321.734 360.442C320.986 361.062 320.122 361.527 319.192 361.812Z" fill="#026AA2"/>
</g>
<path d="M321.919 81.6438L359.886 166.249C360.872 168.458 360.943 170.967 360.084 173.228C359.225 175.489 357.507 177.318 355.303 178.315L194.242 250.609C192.034 251.598 189.524 251.672 187.262 250.812C184.999 249.953 183.171 248.232 182.176 246.026L144.195 161.42C143.201 159.211 143.125 156.697 143.985 154.431C144.844 152.166 146.568 150.334 148.778 149.34L309.839 77.0466C312.051 76.0613 314.564 75.9918 316.827 76.8532C319.091 77.7146 320.922 79.4369 321.919 81.6438Z" fill="#026AA2"/>
<path opacity="0.3" d="M321.919 81.6438L359.886 166.249C360.872 168.458 360.943 170.967 360.084 173.228C359.225 175.489 357.507 177.318 355.303 178.315L194.242 250.609C192.034 251.598 189.524 251.672 187.262 250.812C184.999 249.953 183.171 248.232 182.176 246.026L144.195 161.42C143.201 159.211 143.125 156.697 143.985 154.431C144.844 152.166 146.568 150.334 148.778 149.34L309.839 77.0466C312.051 76.0613 314.564 75.9918 316.827 76.8532C319.091 77.7146 320.922 79.4369 321.919 81.6438Z" fill="black"/>
<path d="M296.536 77.4626L291.389 79.7715L291.982 81.0947L297.129 78.7857L296.536 77.4626Z" fill="#026AA2"/>
<path d="M284.179 82.9975L268.129 90.1973L268.722 91.5205L284.773 84.3206L284.179 82.9975Z" fill="#026AA2"/>
<path d="M144.051 169.947L142.729 170.541L147.124 180.331L148.447 179.737L144.051 169.947Z" fill="#026AA2"/>
<path opacity="0.6" d="M316.524 76.7414L274.99 158.099C271.136 165.639 264.824 171.639 257.098 175.107C249.372 178.574 240.694 179.302 232.498 177.169L144.107 154.125C145.014 152.004 146.679 150.298 148.777 149.339L309.838 77.0459C311.948 76.1025 314.337 75.9937 316.524 76.7414Z" fill="#026AA2"/>
<path d="M373.619 180.867L248.639 188.582C246.431 188.714 244.27 189.279 242.281 190.246C240.292 191.213 238.513 192.563 237.046 194.219C235.579 195.874 234.453 197.803 233.733 199.894C233.012 201.985 232.711 204.198 232.846 206.406L247.102 437.396C247.235 439.605 247.802 441.767 248.772 443.756C249.742 445.746 251.095 447.525 252.753 448.99C254.412 450.456 256.343 451.58 258.437 452.298C260.53 453.016 262.745 453.314 264.954 453.175L424.913 443.299C427.118 443.166 429.276 442.599 431.262 441.63C433.248 440.662 435.023 439.311 436.486 437.656C437.95 436 439.072 434.072 439.788 431.982C440.505 429.891 440.802 427.68 440.662 425.475L428.625 229.449L373.619 180.867Z" fill="#026AA2"/>
<path opacity="0.8" d="M373.619 180.867L248.639 188.582C246.431 188.714 244.27 189.279 242.281 190.246C240.292 191.213 238.513 192.563 237.046 194.219C235.579 195.874 234.453 197.803 233.733 199.894C233.012 201.985 232.711 204.198 232.846 206.406L247.102 437.396C247.235 439.605 247.802 441.767 248.772 443.756C249.742 445.746 251.095 447.525 252.753 448.99C254.412 450.456 256.343 451.58 258.437 452.298C260.53 453.016 262.745 453.314 264.954 453.175L424.913 443.299C427.118 443.166 429.276 442.599 431.262 441.63C433.248 440.662 435.023 439.311 436.486 437.656C437.95 436 439.072 434.072 439.788 431.982C440.505 429.891 440.802 427.68 440.662 425.475L428.625 229.449L373.619 180.867Z" fill="white"/>
<g opacity="0.22">
<path d="M381.175 422.72L277.18 429.144C275.237 429.255 273.329 428.593 271.873 427.303C270.416 426.012 269.53 424.198 269.407 422.255C269.295 420.314 269.955 418.406 271.242 416.948C272.529 415.49 274.34 414.598 276.281 414.468L380.276 408.058C382.219 407.943 384.128 408.601 385.587 409.889C387.046 411.177 387.937 412.99 388.063 414.932C388.179 416.877 387.518 418.789 386.227 420.248C384.936 421.708 383.12 422.596 381.175 422.72Z" fill="#026AA2"/>
</g>
<g opacity="0.22">
<path d="M319.627 222.125L264.62 225.49C262.678 225.601 260.771 224.942 259.313 223.655C257.854 222.367 256.963 220.557 256.832 218.616C256.721 216.672 257.383 214.762 258.673 213.304C259.963 211.845 261.778 210.955 263.721 210.828L318.728 207.435C320.669 207.32 322.577 207.978 324.034 209.267C325.491 210.555 326.378 212.368 326.501 214.309C326.624 216.256 325.969 218.173 324.681 219.639C323.392 221.105 321.574 221.999 319.627 222.125Z" fill="#026AA2"/>
</g>
<g opacity="0.22">
<path d="M357.303 249.013L266.418 254.611C264.474 254.73 262.562 254.073 261.102 252.785C259.642 251.496 258.753 249.681 258.63 247.737C258.515 245.792 259.175 243.88 260.466 242.421C261.757 240.961 263.574 240.073 265.519 239.95L356.389 234.352C358.333 234.233 360.245 234.889 361.705 236.178C363.165 237.467 364.054 239.282 364.177 241.226C364.292 243.169 363.634 245.078 362.346 246.537C361.058 247.996 359.245 248.887 357.303 249.013Z" fill="#026AA2"/>
</g>
<g opacity="0.22">
<path d="M400.853 275.538L268.216 283.717C266.267 283.836 264.35 283.178 262.885 281.887C261.42 280.596 260.526 278.777 260.4 276.829C260.284 274.887 260.943 272.979 262.231 271.522C263.52 270.066 265.333 269.179 267.274 269.055L399.925 260.862C401.868 260.75 403.776 261.412 405.232 262.703C406.688 263.994 407.575 265.808 407.698 267.75C407.814 269.688 407.159 271.594 405.878 273.052C404.596 274.51 402.79 275.404 400.853 275.538Z" fill="#026AA2"/>
</g>
<g opacity="0.22">
<path d="M402.652 304.629L325.544 309.385C323.601 309.501 321.691 308.842 320.232 307.554C318.773 306.266 317.883 304.453 317.756 302.511C317.637 300.567 318.294 298.656 319.582 297.196C320.871 295.736 322.686 294.847 324.63 294.724L401.738 289.967C403.682 289.848 405.593 290.505 407.054 291.793C408.514 293.082 409.403 294.897 409.526 296.841C409.641 298.784 408.983 300.693 407.695 302.152C406.407 303.612 404.594 304.502 402.652 304.629Z" fill="#026AA2"/>
</g>
<g opacity="0.22">
<path d="M290.173 311.561L270.001 312.808C268.06 312.923 266.152 312.264 264.695 310.976C263.238 309.688 262.351 307.875 262.228 305.934C262.113 303.991 262.771 302.081 264.059 300.622C265.347 299.163 267.16 298.273 269.102 298.146L289.274 296.899C291.219 296.788 293.128 297.449 294.587 298.739C296.045 300.03 296.935 301.844 297.062 303.787C297.173 305.73 296.511 307.638 295.221 309.094C293.93 310.551 292.116 311.437 290.173 311.561Z" fill="#026AA2"/>
</g>
<g opacity="0.22">
<path d="M404.451 333.72L271.8 341.899C269.857 342.014 267.947 341.356 266.488 340.068C265.029 338.78 264.139 336.967 264.012 335.025C263.901 333.08 264.562 331.171 265.853 329.712C267.143 328.254 268.957 327.364 270.901 327.237L403.538 319.058C405.483 318.943 407.394 319.603 408.854 320.894C410.313 322.185 411.202 324.002 411.325 325.946C411.44 327.888 410.782 329.796 409.493 331.252C408.205 332.709 406.392 333.596 404.451 333.72Z" fill="#026AA2"/>
</g>
<g opacity="0.22">
<path d="M355.055 365.973L273.597 371.005C271.652 371.116 269.743 370.455 268.284 369.164C266.826 367.874 265.936 366.06 265.809 364.116C265.698 362.174 266.36 360.266 267.65 358.809C268.941 357.353 270.755 356.466 272.697 356.343L354.156 351.311C356.099 351.2 358.007 351.862 359.463 353.152C360.92 354.443 361.806 356.257 361.929 358.199C362.048 360.142 361.391 362.052 360.102 363.509C358.813 364.967 356.998 365.853 355.055 365.973Z" fill="#026AA2"/>
</g>
<g opacity="0.22">
<path d="M406.234 362.826L384.48 364.16C382.539 364.275 380.631 363.617 379.174 362.328C377.717 361.04 376.83 359.227 376.707 357.286C376.588 355.342 377.245 353.431 378.534 351.971C379.822 350.511 381.638 349.621 383.581 349.498L405.334 348.164C407.278 348.045 409.19 348.702 410.65 349.991C412.11 351.279 412.999 353.095 413.122 355.038C413.233 356.982 412.572 358.892 411.282 360.351C409.991 361.809 408.177 362.699 406.234 362.826Z" fill="#026AA2"/>
</g>
<g opacity="0.22">
<path d="M408.031 391.917L275.394 400.096C273.452 400.211 271.542 399.553 270.083 398.265C268.624 396.977 267.734 395.164 267.607 393.222C267.491 391.279 268.15 389.37 269.438 387.911C270.726 386.451 272.539 385.561 274.481 385.434L407.132 377.255C409.073 377.14 410.981 377.799 412.438 379.087C413.895 380.375 414.782 382.188 414.905 384.129C415.024 386.073 414.368 387.985 413.079 389.445C411.79 390.905 409.975 391.794 408.031 391.917Z" fill="#026AA2"/>
</g>
<path opacity="0.22" d="M373.619 180.867L375.78 215.846C375.915 218.052 376.483 220.209 377.452 222.195C378.42 224.181 379.771 225.957 381.426 227.42C383.081 228.884 385.008 230.008 387.098 230.727C389.187 231.446 391.398 231.746 393.603 231.61L428.626 229.449L373.619 180.867Z" fill="#026AA2"/>
<path opacity="0.5" d="M332.695 268.127C332.673 266.451 332.315 264.796 331.643 263.26C330.97 261.724 329.997 260.339 328.78 259.186C327.564 258.033 326.128 257.135 324.559 256.546C322.989 255.957 321.318 255.688 319.643 255.756H203.48C194.677 255.756 186.078 262.906 184.424 271.709L138.583 506.572C136.872 515.374 142.615 522.524 151.417 522.524H519.773C528.575 522.524 537.103 515.389 538.828 506.572L576.636 312.968C578.347 304.15 572.604 297.015 563.801 297.015H363.367C345.964 297.015 333.289 285.036 332.695 268.127Z" fill="#026AA2"/>
</svg>
